<svg width="20" height="20" viewBox="0 0 20 20" fill="none" xmlns="http://www.w3.org/2000/svg">
<g id="angelist 1" clip-path="url(#clip0_34_2269)">
<path id="Vector" d="M9.46425 20C14.1609 20 17.0834 16.5392 17.0834 12.0742C17.0834 10.3908 16.8093 8.87083 14.8984 8.41417C15.3634 7.14083 16.7051 3.4575 16.7051 2.2775C16.7051 1.23833 16.0801 0.3675 14.9659 0.3675C13.1901 0.3675 11.5984 5.51167 11.1001 6.73833C10.7143 5.625 8.90759 0 7.31509 0C6.07759 0 5.49675 0.894167 5.49675 2.01917C5.49675 3.39833 6.85759 6.9725 7.35092 8.3475C7.10092 8.2575 6.83009 8.17917 6.55425 8.17917C5.62259 8.17917 4.63175 9.31583 4.63175 10.2342C4.63175 10.5817 4.82675 11.07 4.95009 11.3942C3.48175 11.785 2.91675 12.7458 2.91675 14.195C2.91259 17.015 5.63592 20 9.46425 20ZM13.4893 4.21917C13.6493 3.73833 14.3293 1.7075 14.9659 1.7075C15.3084 1.7075 15.4001 2.055 15.4001 2.3325C15.4001 3.07833 13.8643 7.2 13.5251 8.11333L12.1718 7.87917L13.4893 4.21917ZM6.74675 1.8875V1.88667C6.74675 1.42167 7.32425 0.101667 8.58925 3.72667L9.96675 7.645C9.34592 7.59417 8.86425 7.5275 8.55842 7.7C8.12425 6.575 6.74675 3.02417 6.74675 1.8875ZM6.65509 9.53083L6.65592 9.53167C7.82175 9.53167 9.32675 13.2267 9.32675 13.7267C9.32675 13.9258 9.13175 14.1717 8.90509 14.1717C8.07259 14.1717 5.84342 11.1675 5.84342 10.355C5.84675 10.0542 6.34842 9.53083 6.65509 9.53083ZM5.31509 12.5892C5.76842 12.5892 7.47592 14.945 7.47592 15.445C7.47592 15.6367 7.16925 15.7692 7.01092 15.7692C6.37009 15.7692 6.11925 15.1633 4.97759 13.7617C3.79509 14.9217 5.79342 17.1558 7.29842 17.1558C8.33675 17.1558 9.01342 16.2108 8.81092 15.515C8.95842 15.515 9.14092 15.5267 9.27675 15.4917C9.32092 16.55 9.63925 17.8117 10.9368 17.9017C10.9368 17.8667 11.0168 17.6242 11.0168 17.6125C11.0168 16.9325 10.5951 16.3392 10.5951 15.6475C10.5951 14.5417 11.4584 13.4717 12.3343 12.8467C12.6526 12.6125 13.0393 12.4675 13.4126 12.335C13.7993 12.1908 14.2093 12.0225 14.5026 11.7333C14.4584 11.2958 14.2759 10.9092 13.8301 10.9092C12.7276 10.9092 9.03009 11.0658 9.03009 9.35833C9.03009 9.09667 9.03425 8.84667 9.72342 8.84667C11.0093 8.84667 14.2734 9.15917 15.2284 9.98333C15.9484 10.6125 16.1959 14.405 13.9943 16.8075L13.9918 16.8083C12.8334 18.0583 11.3526 18.7067 9.62509 18.7067C7.26092 18.7067 5.39342 17.4333 4.49425 15.2575C3.81342 13.5625 4.64592 12.5892 5.31509 12.5892ZM10.0659 11.8858C10.4534 12.0075 10.8509 12.0433 11.2493 12.1208C10.9543 12.3317 10.6926 12.59 10.4409 12.8667C10.3293 12.535 10.1934 12.2108 10.0659 11.8858Z" fill="#505F79"/>
</g>
<defs>
<clipPath id="clip0_34_2269">
<rect width="20" height="20" fill="white"/>
</clipPath>
</defs>
</svg>
